<?xml version="1.0" encoding="UTF-8"?>
<svg version="1.1" xmlns="http://www.w3.org/2000/svg" width="301" height="361">
<path d="M0 0 C99.33 0 198.66 0 301 0 C301 119.13 301 238.26 301 361 C201.67 361 102.34 361 0 361 C0 241.87 0 122.74 0 0 Z " fill="#FEFEFE" transform="translate(0,0)"/>
<path d="M0 0 C1.40693261 0.85044439 2.81458098 1.69970566 4.22290039 2.54785156 C7.14793193 4.31060621 10.06983266 6.07839106 12.98974609 7.84960938 C19.23417221 11.63134512 25.51972247 15.34337834 31.80310059 19.05987549 C34.46880029 20.6387127 37.13072759 22.22385033 39.79275513 23.80886841 C44.79469007 26.78708351 49.80129908 29.75580237 54.83174133 32.68566895 C57.64220842 34.32464259 60.44507699 35.97656118 63.25 37.625 C64.72811157 38.47529785 64.72811157 38.47529785 66.23608398 39.34277344 C75.45279255 44.78737737 84.66189673 51.066987 88.375 61.5 C88.71415939 62.30503967 89.05331879 63.11007935 89.40275574 63.93951416 C90.73701617 68.82575064 90.6618037 73.44410843 90.6496582 78.48730469 C90.65476913 79.58402496 90.65988007 80.68074524 90.66514587 81.81069946 C90.6790292 85.43114706 90.67808567 89.05140396 90.67578125 92.671875 C90.67966954 95.19525218 90.68400448 97.71862871 90.68876648 100.24200439 C90.6962265 105.53115224 90.69607826 110.82023045 90.69067383 116.109375 C90.68464335 122.20215889 90.69692487 128.2947113 90.7182439 134.3874557 C90.73806365 140.27036098 90.74102394 146.1531764 90.73750877 152.03610992 C90.73802075 154.52866407 90.74323527 157.02122201 90.75332069 159.5137558 C90.76572072 163.00772161 90.75887097 166.50115919 90.74731445 169.99511719 C90.75495819 171.01572235 90.76260193 172.03632751 90.77047729 173.08786011 C90.6929772 183.74214827 88.12533106 193.58451783 80.54736328 201.38012695 C74.63642387 206.78098181 68.36412674 210.69850684 61.375 214.5625 C59.04316942 215.87961658 56.71248735 217.19862038 54.3828125 218.51953125 C53.79396271 218.85197845 53.20511292 219.18442566 52.59841919 219.52694702 C46.75339142 222.83257403 40.99708666 226.27777254 35.25 229.75 C33.20457414 230.98201501 31.15899681 232.21377858 29.11328125 233.4453125 C28.04674316 234.08758789 26.98020508 234.72986328 25.88134766 235.39160156 C19.78298521 239.06063463 13.67550628 242.71433743 7.56182861 246.35778809 C6.16531741 247.19083982 4.76958191 248.02519355 3.37469482 248.86096191 C-23.04910663 264.69041667 -23.04910663 264.69041667 -38.625 262.5 C-43.68932806 260.83282548 -48.09238249 258.25967415 -52.625 255.5 C-54.10463788 254.62879566 -55.58515629 253.75908561 -57.06640625 252.890625 C-61.3435302 250.3633329 -65.58943861 247.78701625 -69.83105469 245.20068359 C-74.72995493 242.21870709 -79.64590256 239.26517804 -84.5625 236.3125 C-86.10635376 235.384375 -86.10635376 235.384375 -87.68139648 234.4375 C-93.52839899 230.93028066 -99.39184928 227.45384615 -105.27734375 224.01171875 C-105.92156784 223.63489456 -106.56579193 223.25807037 -107.22953796 222.86982727 C-110.35647473 221.0419837 -113.48535506 219.21756725 -116.61694336 217.39770508 C-144.18809361 201.34572355 -144.18809361 201.34572355 -149.625 185.5 C-150.27179879 181.44087427 -150.30101899 177.48267124 -150.25610352 173.37841797 C-150.26325882 172.22083984 -150.27041412 171.06326172 -150.27778625 169.87060547 C-150.29457527 166.07738737 -150.27532862 162.28536731 -150.25390625 158.4921875 C-150.25473573 155.83902426 -150.25714347 153.18590146 -150.26121521 150.53274536 C-150.26571875 144.98669866 -150.2499722 139.44099116 -150.22192383 133.89501953 C-150.18984775 127.50379327 -150.18990539 121.11317724 -150.2071386 114.7219075 C-150.22305634 108.5436654 -150.21623867 102.36564479 -150.19920158 96.18741226 C-150.1940323 93.57123436 -150.19448628 90.9550389 -150.20074654 88.33886337 C-150.20621731 84.67979291 -150.18576266 81.02174662 -150.15844727 77.36279297 C-150.16497314 76.29034332 -150.17149902 75.21789368 -150.17822266 74.11294556 C-150.0512007 64.06881099 -146.60583404 55.80308454 -139.625 48.5 C-132.87908375 43.15769099 -125.3886631 38.88971502 -117.9375 34.625 C-110.74120622 30.48153502 -103.57864713 26.29180617 -96.46446228 22.00932312 C-91.8589188 19.23750715 -87.24206204 16.48552725 -82.6171875 13.74609375 C-81.61582008 13.15266174 -81.61582008 13.15266174 -80.59422302 12.54724121 C-77.88113948 10.93966342 -75.16777114 9.33257004 -72.45361328 7.72680664 C-70.4242135 6.52589659 -68.39547977 5.32387333 -66.3671875 4.12109375 C-65.7141716 3.73400238 -65.0611557 3.34691101 -64.38835144 2.9480896 C-58.99802937 -0.25692573 -53.66778226 -3.55281264 -48.35620117 -6.88647461 C-31.17675679 -17.03566098 -15.36472976 -9.41154245 0 0 Z " fill="#FDFDFD" transform="translate(169.625,57.5)"/>
<path d="M0 0 C1.40693261 0.85044439 2.81458098 1.69970566 4.22290039 2.54785156 C7.14793193 4.31060621 10.06983266 6.07839106 12.98974609 7.84960938 C19.23417221 11.63134512 25.51972247 15.34337834 31.80310059 19.05987549 C34.46880029 20.6387127 37.13072759 22.22385033 39.79275513 23.80886841 C44.79469007 26.78708351 49.80129908 29.75580237 54.83174133 32.68566895 C57.64220842 34.32464259 60.44507699 35.97656118 63.25 37.625 C64.72811157 38.47529785 64.72811157 38.47529785 66.23608398 39.34277344 C75.45279255 44.78737737 84.66189673 51.066987 88.375 61.5 C88.71415939 62.30503967 89.05331879 63.11007935 89.40275574 63.93951416 C90.73701617 68.82575064 90.6618037 73.44410843 90.6496582 78.48730469 C90.65476913 79.58402496 90.65988007 80.68074524 90.66514587 81.81069946 C90.6790292 85.43114706 90.67808567 89.05140396 90.67578125 92.671875 C90.67966954 95.19525218 90.68400448 97.71862871 90.68876648 100.24200439 C90.6962265 105.53115224 90.69607826 110.82023045 90.69067383 116.109375 C90.68464335 122.20215889 90.69692487 128.2947113 90.7182439 134.3874557 C90.73806365 140.27036098 90.74102394 146.1531764 90.73750877 152.03610992 C90.73802075 154.52866407 90.74323527 157.02122201 90.75332069 159.5137558 C90.76572072 163.00772161 90.75887097 166.50115919 90.74731445 169.99511719 C90.75495819 171.01572235 90.76260193 172.03632751 90.77047729 173.08786011 C90.6929772 183.74214827 88.12533106 193.58451783 80.54736328 201.38012695 C74.63642387 206.78098181 68.36412674 210.69850684 61.375 214.5625 C59.04316942 215.87961658 56.71248735 217.19862038 54.3828125 218.51953125 C53.79396271 218.85197845 53.20511292 219.18442566 52.59841919 219.52694702 C46.75339142 222.83257403 40.99708666 226.27777254 35.25 229.75 C33.20457414 230.98201501 31.15899681 232.21377858 29.11328125 233.4453125 C28.04674316 234.08758789 26.98020508 234.72986328 25.88134766 235.39160156 C19.78298521 239.06063463 13.67550628 242.71433743 7.56182861 246.35778809 C6.16531741 247.19083982 4.76958191 248.02519355 3.37469482 248.86096191 C-23.04910663 264.69041667 -23.04910663 264.69041667 -38.625 262.5 C-43.68932806 260.83282548 -48.09238249 258.25967415 -52.625 255.5 C-54.10463788 254.62879566 -55.58515629 253.75908561 -57.06640625 252.890625 C-61.3435302 250.3633329 -65.58943861 247.78701625 -69.83105469 245.20068359 C-74.72995493 242.21870709 -79.64590256 239.26517804 -84.5625 236.3125 C-86.10635376 235.384375 -86.10635376 235.384375 -87.68139648 234.4375 C-93.52839899 230.93028066 -99.39184928 227.45384615 -105.27734375 224.01171875 C-105.92156784 223.63489456 -106.56579193 223.25807037 -107.22953796 222.86982727 C-110.35647473 221.0419837 -113.48535506 219.21756725 -116.61694336 217.39770508 C-144.18809361 201.34572355 -144.18809361 201.34572355 -149.625 185.5 C-150.27179879 181.44087427 -150.30101899 177.48267124 -150.25610352 173.37841797 C-150.26325882 172.22083984 -150.27041412 171.06326172 -150.27778625 169.87060547 C-150.29457527 166.07738737 -150.27532862 162.28536731 -150.25390625 158.4921875 C-150.25473573 155.83902426 -150.25714347 153.18590146 -150.26121521 150.53274536 C-150.26571875 144.98669866 -150.2499722 139.44099116 -150.22192383 133.89501953 C-150.18984775 127.50379327 -150.18990539 121.11317724 -150.2071386 114.7219075 C-150.22305634 108.5436654 -150.21623867 102.36564479 -150.19920158 96.18741226 C-150.1940323 93.57123436 -150.19448628 90.9550389 -150.20074654 88.33886337 C-150.20621731 84.67979291 -150.18576266 81.02174662 -150.15844727 77.36279297 C-150.16497314 76.29034332 -150.17149902 75.21789368 -150.17822266 74.11294556 C-150.0512007 64.06881099 -146.60583404 55.80308454 -139.625 48.5 C-132.87908375 43.15769099 -125.3886631 38.88971502 -117.9375 34.625 C-110.74120622 30.48153502 -103.57864713 26.29180617 -96.46446228 22.00932312 C-91.8589188 19.23750715 -87.24206204 16.48552725 -82.6171875 13.74609375 C-81.61582008 13.15266174 -81.61582008 13.15266174 -80.59422302 12.54724121 C-77.88113948 10.93966342 -75.16777114 9.33257004 -72.45361328 7.72680664 C-70.4242135 6.52589659 -68.39547977 5.32387333 -66.3671875 4.12109375 C-65.7141716 3.73400238 -65.0611557 3.34691101 -64.38835144 2.9480896 C-58.99802937 -0.25692573 -53.66778226 -3.55281264 -48.35620117 -6.88647461 C-31.17675679 -17.03566098 -15.36472976 -9.41154245 0 0 Z M-48.625 0.5 C-50.06478854 1.34819226 -51.5049177 2.19580646 -52.9453125 3.04296875 C-57.2485814 5.59248095 -61.52544352 8.18399049 -65.79882812 10.78320312 C-70.71064071 13.76695106 -75.63596229 16.72814669 -80.5625 19.6875 C-81.59157471 20.30616943 -82.62064941 20.92483887 -83.6809082 21.56225586 C-89.52810534 25.06950282 -95.39169272 28.54606228 -101.27734375 31.98828125 C-101.92156784 32.36510544 -102.56579193 32.74192963 -103.22953796 33.13017273 C-106.35647473 34.9580163 -109.48535506 36.78243275 -112.61694336 38.60229492 C-132.45055582 49.08096902 -132.45055582 49.08096902 -143.625 67.5 C-144.04090136 71.27801412 -144.03552311 75.02402505 -144.01318359 78.82202148 C-144.01844055 79.93039368 -144.02369751 81.03876587 -144.02911377 82.1807251 C-144.04226724 85.82765998 -144.03359119 89.47415478 -144.0234375 93.12109375 C-144.02545971 95.66642846 -144.02837237 98.2117626 -144.03213501 100.75709534 C-144.03655221 106.08560245 -144.03043572 111.41395343 -144.01611328 116.74243164 C-143.99979751 122.88300407 -144.00507245 129.02327745 -144.0215925 135.16384262 C-144.03690377 141.09481419 -144.03521048 147.02569373 -144.0264473 152.95668221 C-144.02445138 155.46959539 -144.02688311 157.98251624 -144.03388596 160.49542046 C-144.04153808 164.01334468 -144.02984241 167.53070179 -144.01318359 171.04858398 C-144.01925629 172.07899307 -144.02532898 173.10940216 -144.03158569 174.17103577 C-143.94513127 184.06831802 -141.82626929 191.18177875 -134.94873047 198.41064453 C-131.05532282 201.91135714 -126.75519103 204.41591288 -122.1875 206.9375 C-121.2195752 207.49042725 -120.25165039 208.04335449 -119.25439453 208.61303711 C-117.29731395 209.73097704 -115.33674437 210.84283351 -113.37255859 211.94824219 C-109.5532057 214.10532473 -105.77556941 216.32997757 -102 218.5625 C-101.31929443 218.96251221 -100.63858887 219.36252441 -99.93725586 219.7746582 C-94.68899948 222.85972772 -89.46703105 225.98748117 -84.25 229.125 C-75.95527139 234.11339776 -67.63873531 239.06444236 -59.3125 244 C-58.73050842 244.34524719 -58.14851685 244.69049438 -57.54888916 245.04620361 C-54.83337721 246.65682356 -52.11611563 248.26435887 -49.39599609 249.8671875 C-47.73436019 250.84630829 -46.07502631 251.82937516 -44.42041016 252.8203125 C-39.67282895 255.624727 -36.34131087 256.64288692 -30.875 256.5625 C-29.67617187 256.54896484 -29.67617187 256.54896484 -28.453125 256.53515625 C-27.84984375 256.52355469 -27.2465625 256.51195312 -26.625 256.5 C-26.955 255.84 -27.285 255.18 -27.625 254.5 C-28.285 254.5 -28.945 254.5 -29.625 254.5 C-32.00736607 248.8673559 -31.9274796 243.61147803 -31.93139648 237.60449219 C-31.93972 236.51752548 -31.94804352 235.43055878 -31.95661926 234.31065369 C-31.98068416 230.72269084 -31.98948752 227.13490996 -31.99609375 223.546875 C-32.0050632 221.04591824 -32.01418511 218.54496202 -32.02345276 216.04400635 C-32.0399361 210.80195369 -32.04767443 205.55994527 -32.05053711 200.31787109 C-32.05376699 194.94627264 -32.07488153 189.57508227 -32.11206055 184.20361328 C-32.15635324 177.70623271 -32.17600338 171.20923594 -32.17726326 164.71170807 C-32.18145872 162.24146005 -32.19386572 159.77121132 -32.21478081 157.30104828 C-32.24176763 153.83794854 -32.23684653 150.37623867 -32.22436523 146.91308594 C-32.23919952 145.90183151 -32.25403381 144.89057709 -32.26931763 143.84867859 C-32.19751668 136.81925856 -30.6393907 131.33731208 -26.625 125.5 C-20.91366933 119.95484801 -13.87285788 116.04097378 -7.0625 112 C-5.01484773 110.76952171 -2.96799745 109.53770801 -0.921875 108.3046875 C0.12162109 107.6765918 1.16511719 107.04849609 2.24023438 106.40136719 C7.25451688 103.35999397 12.22117322 100.24385979 17.1875 97.125 C28.8388688 89.81773836 40.53754208 82.58892609 52.27075195 75.41381836 C54.4773594 74.05340973 56.67221185 72.68099941 58.86010742 71.29125977 C59.44061356 70.92568466 60.02111969 70.56010956 60.61921692 70.18345642 C62.24295951 69.16015813 63.86257719 68.130323 65.48193359 67.10009766 C69.40381339 64.93098372 72.90665697 63.90780996 77.375 64.5 C80.9375 65.9375 80.9375 65.9375 83.375 67.5 C82.24125262 60.04966005 77.77578063 55.52437836 72.375 50.5 C68.05055269 47.43833419 63.5049189 44.869819 58.875 42.3125 C57.5842646 41.5809436 56.29473289 40.84725979 55.00634766 40.11157227 C52.38819567 38.61737688 49.76621586 37.13027106 47.14160156 35.64746094 C41.61675664 32.51274482 36.18437853 29.22578477 30.75 25.9375 C28.72436758 24.71806993 26.69832283 23.49932453 24.671875 22.28125 C23.65544922 21.67023438 22.63902344 21.05921875 21.59179688 20.4296875 C16.3222892 17.26862279 11.04437298 14.12182677 5.76104736 10.98391724 C4.06302377 9.97494883 2.366205 8.96395363 0.66943359 7.95288086 C-6.01692969 3.98595222 -12.75408386 0.13934705 -19.625 -3.5 C-20.68146729 -4.06473022 -20.68146729 -4.06473022 -21.75927734 -4.64086914 C-31.04695079 -8.9176714 -40.68847942 -4.29668023 -48.625 0.5 Z " fill="#030303" transform="translate(169.625,57.5)"/>
<path d="M0 0 C3.18915605 2.91773852 4.77713832 4.78664194 5.5625 9.0625 C4.87038902 12.67685737 3.58347796 14.41652204 1 17 C0.34 17 -0.32 17 -1 17 C-1 24.59 -1 32.18 -1 40 C0.98 40.33 2.96 40.66 5 41 C5.625 42.875 5.625 42.875 6 45 C2.68386313 48.31613687 -0.89025053 48.17431762 -5.4375 48.25 C-9.77552311 48.22680202 -12.54760415 47.85715519 -16 45 C-15.67 43.68 -15.34 42.36 -15 41 C-12.03 40.505 -12.03 40.505 -9 40 C-9 32.41 -9 24.82 -9 17 C-10.32 16.34 -11.64 15.68 -13 15 C-14.72515631 11.54968739 -14.49677924 7.77283696 -14 4 C-10.18709254 -1.25918271 -6.06859417 -1.56946401 0 0 Z " fill="#0A0A0A" transform="translate(171,88)"/>
<path d="M0 0 C3.82987087 1.91493543 4.99362017 7.04512276 6.6875 10.8125 C7.11611328 11.72837891 7.54472656 12.64425781 7.98632812 13.58789062 C8.38658203 14.47283203 8.78683594 15.35777344 9.19921875 16.26953125 C9.56877686 17.08010986 9.93833496 17.89068848 10.3190918 18.72583008 C11.09779819 21.32663683 11.09639 22.52654682 10 25 C6.9375 26.75 6.9375 26.75 4 28 C1.81673892 23.72886302 -0.31326082 19.49797113 -2 15 C-2.4125 16.2375 -2.825 17.475 -3.25 18.75 C-3.52714844 19.56339844 -3.80429688 20.37679687 -4.08984375 21.21484375 C-4.72959719 23.17254421 -5.32192891 25.14606693 -5.87890625 27.12890625 C-8.5750632 36.32291426 -8.5750632 36.32291426 -12.125 38.75 C-15 40 -15 40 -17 40 C-14.93419089 32.3578197 -12.83934315 24.72558325 -10.625 17.125 C-10.20734375 15.61679688 -10.20734375 15.61679688 -9.78125 14.078125 C-8.10571019 8.38732764 -6.7329128 4.68458033 -2 1 C-1.34 0.67 -0.68 0.34 0 0 Z " fill="#F0F0F0" transform="translate(180,197)"/>
<path d="M0 0 C1.16674805 1.90185547 1.16674805 1.90185547 2.26171875 4.3671875 C2.65810547 5.25277344 3.05449219 6.13835937 3.46289062 7.05078125 C3.86701172 7.98277344 4.27113281 8.91476563 4.6875 9.875 C5.10322266 10.79925781 5.51894531 11.72351563 5.94726562 12.67578125 C9 19.58328202 9 19.58328202 9 23 C6.6875 24.75 6.6875 24.75 4 26 C1 25 1 25 -0.38671875 22.49609375 C-0.81597656 21.48675781 -1.24523437 20.47742188 -1.6875 19.4375 C-2.34298828 17.91962891 -2.34298828 17.91962891 -3.01171875 16.37109375 C-3.33785156 15.58863281 -3.66398438 14.80617187 -4 14 C-6.42166926 18.18191344 -7.25056769 22.8327637 -8.23632812 27.51171875 C-9.37761027 32.25680052 -10.87170947 34.42060867 -15 37 C-16.485 37.495 -16.485 37.495 -18 38 C-16.56330258 30.2891451 -14.76573257 22.70415448 -12.75 15.125 C-12.47542969 14.01125 -12.20085937 12.8975 -11.91796875 11.75 C-9.49584235 2.73491071 -9.49584235 2.73491071 -5.953125 0.1796875 C-3 -1 -3 -1 0 0 Z " fill="#F1F1F1" transform="translate(230,168)"/>
<path d="M0 0 C0.8961721 4.92354795 0.8961721 4.92354795 0 8 C-3.07049038 10.97913439 -6.65397697 12.9268586 -10.375 15 C-11.85226563 15.87591797 -11.85226563 15.87591797 -13.359375 16.76953125 C-20.5917923 21 -20.5917923 21 -23 21 C-23.94504769 16.07495146 -23.94504769 16.07495146 -23 13 C-19.73608554 10.00321096 -15.96227815 8.06416388 -12.0625 6 C-11.02158203 5.41605469 -9.98066406 4.83210937 -8.90820312 4.23046875 C-1.30425754 0 -1.30425754 0 0 0 Z " fill="#49A023" transform="translate(221,244)"/>
</svg>
